# xmcd CD database file
#
# Track frame offsets:
#	150
#	12282
#	26607
#	37174
#	52906
#	64447
#	75565
#	88120
#	100913
#	111243
#	126699
#	138568
#	148496
#	161963
#	174153
#	189190
#	203551
#	215743
#
# Disc length: 3034 seconds
#
# Revision: 0
# Processed by: cddbd v1.5.2PL0 Copyright (c) Steve Scherf et al.
# Submitted via: CDex 1.70beta2
#
DISCID=0f0bd812
DTITLE=Brazilian Big Bands - Dancing Days 1904-1954 cd1
DYEAR=1900
DGENRE=Jazz
TTITLE0=URUBU MALANDRO (Fon Fon)
TTITLE1=FREVODAS VASSOURINHAS (Severino Araujo)
TTITLE2=BICHO DANADO (Diabos do Céu)
TTITLE3=BREJEIRO (Banda do Corpo dos bombeiros de RJ)
TTITLE4=BANDINHA DO GUEDES (Bandinha do Guedes)
TTITLE5=NENÊ (Carioca)
TTITLE6=MOLENGO (Severino Araujo)
TTITLE7=SURURU NA CIDADE (Orquestra Victor Brasileira)
TTITLE8=LAGRIMAS DE AMOR (Orquestra Victor Brasileira)
TTITLE9=SAUDOSO AMOR (Orquestra Victor Brasileira)
TTITLE10=JUDITH (Dante Santoro)
TTITLE11=VALSA DE MELBA (Radamés Gnattali)
TTITLE12=PEGUEI UM ITA (Zacarias)
TTITLE13=BRASILEIRINHO (Chiquinho)
TTITLE14=CARIOQUINHA NO FLAMENGO (Sivuca)
TTITLE15=ZE CARIOCA NO FREVO (Severino Araujo)
TTITLE16=PRIMAVERA (Bandinha do Guedes)
TTITLE17=APANHEI-TE CAVAQUINHO (Carioca)
EXTD=
EXTT0=
EXTT1=
EXTT2=
EXTT3=
EXTT4=
EXTT5=
EXTT6=
EXTT7=
EXTT8=
EXTT9=
EXTT10=
EXTT11=
EXTT12=
EXTT13=
EXTT14=
EXTT15=
EXTT16=
EXTT17=
PLAYORDER=
